<svg xmlns="http://www.w3.org/2000/svg" viewBox="0 0 512 512">
  <rect width="512" height="512" rx="112" fill="#ff3b30"/>
  <g fill="none" stroke="#fff" stroke-width="22" stroke-linecap="round" stroke-linejoin="round">
    <path d="M128 232 h256 a16 16 0 0 1 16 16 v72 a128 128 0 0 1 -128 128 h-8 a128 128 0 0 1 -128 -128 v-72 a16 16 0 0 1 16 -16 z"/>
    <path d="M104 232 a152 152 0 0 1 304 0"/>
    <path d="M212 112 v-12 a44 44 0 0 1 88 0 v12"/>
  </g>
  <g fill="#fff">
    <circle cx="200" cy="300" r="14"/>
    <circle cx="256" cy="320" r="14"/>
    <circle cx="312" cy="300" r="14"/>
  </g>
</svg>
